<svg width="49" height="48" viewBox="0 0 49 48" fill="none" xmlns="http://www.w3.org/2000/svg">
<path d="M28.5 38C36.0424 38 39.8138 38 42.1568 35.6568C44.5 33.3138 44.5 29.5424 44.5 22C44.5 14.4575 44.5 10.6863 42.1568 8.34314C39.8138 6 36.0424 6 28.5 6H20.5C12.9575 6 9.1863 6 6.84314 8.34314C4.5 10.6863 4.5 14.4575 4.5 22C4.5 29.5424 4.5 33.3138 6.84314 35.6568C8.1495 36.9632 9.89978 37.5412 12.5 37.797" stroke="#8BC33F" stroke-width="2" stroke-linecap="round" stroke-linejoin="round"/>
<path d="M18.5 22L23 26L30.5 18" stroke="#8BC33F" stroke-width="2" stroke-linecap="round" stroke-linejoin="round"/>
<path d="M28.5 38C26.027 38 23.3044 38.9984 20.8172 40.29C16.8224 42.3642 14.825 43.4014 13.8407 42.7406C12.8564 42.0796 13.0427 40.0302 13.4153 35.9314L13.5 35" stroke="#8BC33F" stroke-width="2" stroke-linecap="round"/>
</svg>
