<svg width="49" height="48" viewBox="0 0 49 48" fill="none" xmlns="http://www.w3.org/2000/svg">
<path d="M33.938 39.5038L32.657 29.2558C32.2816 26.2532 29.7292 24 26.7034 24H24.5H22.2966C19.2707 24 16.7183 26.2532 16.343 29.2558L15.062 39.5038C14.7636 41.8912 16.6251 44 19.0311 44H24.5H29.9688C32.3748 44 34.2364 41.8912 33.938 39.5038Z" stroke="#8BC33F" stroke-width="2" stroke-linecap="round" stroke-linejoin="round"/>
<path d="M24.5 16C27.8137 16 30.5 13.3137 30.5 10C30.5 6.68629 27.8137 4 24.5 4C21.1863 4 18.5 6.68629 18.5 10C18.5 13.3137 21.1863 16 24.5 16Z" stroke="#8BC33F" stroke-width="2"/>
<path d="M8.5 22C10.7091 22 12.5 20.2091 12.5 18C12.5 15.7909 10.7091 14 8.5 14C6.29086 14 4.5 15.7909 4.5 18C4.5 20.2091 6.29086 22 8.5 22Z" stroke="#8BC33F" stroke-width="2"/>
<path d="M40.5 22C42.7091 22 44.5 20.2091 44.5 18C44.5 15.7909 42.7091 14 40.5 14C38.2909 14 36.5 15.7909 36.5 18C36.5 20.2091 38.2909 22 40.5 22Z" stroke="#8BC33F" stroke-width="2"/>
<path d="M8.49998 28H7.88848C5.93314 28 4.26438 29.4136 3.94292 31.3424L3.27624 35.3424C2.8699 37.7806 4.75006 40 7.22182 40H14.5" stroke="#8BC33F" stroke-width="2" stroke-linecap="round" stroke-linejoin="round"/>
<path d="M40.5 28H41.1114C43.0668 28 44.7356 29.4136 45.057 31.3424L45.7238 35.3424C46.13 37.7806 44.2502 40 41.7784 40C39.455 40 36.6904 40 34.5 40" stroke="#8BC33F" stroke-width="2" stroke-linecap="round" stroke-linejoin="round"/>
</svg>
